<svg xmlns="http://www.w3.org/2000/svg" viewBox="0 0 512 512" fill="#0066cc">
  <!-- Fish icon from Font Awesome fa-solid fa-fish -->
  <path d="M304 96c38.4 0 73.7 13.5 101.3 36.1l-32.1 32.1c-4.6 4.6-5.9 11.5-3.5 17.4s8.3 9.9 14.8 9.9H496c8.8 0 16-7.2 16-16V64c0-6.5-3.9-12.3-9.9-14.8s-12.9-1.1-17.4 3.5l-34.4 34.4C418.8 52.3 364.1 32 304 32C171.2 32 64 139.2 64 272s107.2 240 240 240c64.3 0 122.7-25.3 165.3-66.4l-22.6-22.6C417.8 449.9 363.8 472 304 472c-110.3 0-200-89.7-200-200s89.7-200 200-200zm80 200a80 80 0 1 0 -160 0 80 80 0 1 0 160 0zm-80-48a48 48 0 1 1 0 96 48 48 0 1 1 0-96z"/>
</svg>
